<?xml version="1.0" standalone="no"?><!DOCTYPE svg PUBLIC "-//W3C//DTD SVG 1.1//EN" "http://www.w3.org/Graphics/SVG/1.1/DTD/svg11.dtd"><svg t="1696735774996" class="icon" viewBox="0 0 1024 1024" version="1.1" xmlns="http://www.w3.org/2000/svg" p-id="1432" xmlns:xlink="http://www.w3.org/1999/xlink" width="200" height="200"><path d="M818.7 432.6c0 0.1 15.5 45.6 17.3 87.6-1.1-30.4-6.8-59.7-17.3-87.6zM250.9 774.6c4.5 4.9 9.2 9.9 14 14.9 15.2 14.3 34.6 32.9 47.4 45.3 1.9 1.7 3.9 3.4 5.9 5.2 2.8 2.5 5.4 5.1 7.8 8 4.7 5.8 8.4 12.4 10.9 19.6 2.5 7.4 11.2 25.4 37.5 37.3 20.9 7.9 50.9 12.3 93.8 8.8 293.8-91.6 286.2-581 286.2-581-14.7-15.1-31.3-29.3-49.8-42.4-1.8-1.3-3.5-2.7-5.4-4.3-7-6.3-20.6-12.7-41.5-18.1-0.1 0-0.1 0.1-0.2 0.1-5.5 5.5-11.4 10.9-17.6 15.9-54.3 44.2-121.8 58-176.7 41.7-1.9-0.6-3.8-1.3-5.5-2.2-36.4-3.3-76.9-17.2-115-41.6-5.1-3.2-10-6.6-14.7-10-38.2 8.2-48 15.6-48.4 15.9l-0.2 0.2c-0.7 0.5-1.6 1.3-2.7 2-3.7 2.6-37.1 27-69.9 68.2-10 12.5-18.8 25.3-26.6 38.2-0.6 1-1.2 2.1-1.9 3.1-23.2 39.6-36 80.8-38.1 122.9-0.1 2.7-0.2 5.5-0.3 8.2v8.2c0.1 4.1 0.2 8.2 0.5 12.4 0.2 2.8 0.4 5.5 0.7 8.3 0.1 1.4 0.3 2.8 0.4 4.1 0.3 2.8 0.7 5.5 1.1 8.3 0.4 2.8 0.9 5.5 1.4 8.3 0.5 2.8 1.1 5.5 1.6 8.3 1.2 5.5 2.6 11.1 4.1 16.7 4.7 16.7 11 33.5 18.9 50.5 1 2.1 1.4 4.3 1.4 6.4v0.8c11 21.4 21.2 37 28.4 47.1 1.4 1 2.6 2.2 3.5 3.6 2.9 4.3 6 8.6 9.2 12.9 0.8 1.1 1.5 2.3 1.9 3.6 7 11 21.6 33 30.6 40.2 2.8 0.7 5.3 2.2 7.3 4.4zM519.5 904.3c-14.9 3.6-27.8 6.1-37.4 7.7 11.9-1.9 24.4-4.5 37.4-7.7z" fill="#FEAFAF" p-id="1433"></path><path d="M640 77.6v-0.1 0.1zM686.9 122.4c0-0.2-0.1-0.3-0.1-0.5-0.3-3.2-4.2-8.1-7.3-9-12-3.6-24.9-5.4-38.3-5.4-38.6 0-78.1 14.8-111 41.6-18.8 15.3-34.2 33.6-45.3 53.3-4.2 7.4-7.8 14.9-10.7 22.6-1 2.6-2 5.3-2.8 8-2.4 7.4-4.3 14.9-5.5 22.4-0.7 4-1.1 8.1-1.4 12.1 0 0.2 0 0.4 0.1 0.7 0.1 1.9 1.5 4.2 3.2 6.1-1.2-0.1-2.4-0.1-3.6-0.2-0.1 4.6 0 9.3 0.4 13.8 0.1 1.9 1.5 4.2 3.2 6.1-0.1 0 202.6-28.5 219.1-171.6zM293.6 139.7c-9.4 0-18.2 0.9-26.2 2.7 1.1 5.4 2.8 10.8 4.9 16.3 26.5 33.6 87.8 102.9 160.9 130.2l1.2 0.3c-0.5-7.1-0.6-14.4-0.1-21.6-0.6-9.9-0.3-19.9 0.9-30 1.3-10.2 3.5-20.4 6.6-30.6 0.4-1.3 0.8-2.7 1.3-4-10.3-9.3-21.7-17.9-33.8-25.6-37.4-24-79.6-37.7-115.7-37.7z" fill="#B4E84B" p-id="1434"></path><path d="M202 713.5c-1-1.4-2.2-2.6-3.5-3.6-2.5-1.8-5.6-2.9-8.8-2.9-8.8 0-15 7.3-15 15 0 2.8 0.8 5.7 2.6 8.4 3.1 4.6 6.4 9.1 9.8 13.7 3.9 5.3 10.8 7.4 17 5.3 8.2-2.9 12-11.9 9.1-19.5-0.5-1.2-1.1-2.4-1.9-3.6-3.3-4.2-6.4-8.5-9.3-12.8z" fill="" p-id="1435"></path><path d="M722 265.8c-1-0.7-1.9-1.5-2.8-2.3-9.4-8.4-23.2-15.2-40.2-20.7 27.9-38.1 41.1-82.4 37.7-123.6-1.3-15.6-13.6-30.5-28.6-34.9-15.3-4.5-31.5-7.3-48.1-6.3-43.3 0-89.4 16.1-128.6 48.1-19.8 16.1-35.9 34.6-48.3 54.5-11.3-10.1-23.9-19.7-37.5-28.5-59-37.7-123.4-50.3-169.9-37.6-12.7 3.5-20.6 15.9-18.4 28.8 5.8 34.6 27.8 72.2 62 104.6-17.6 4.9-30.8 10.3-38.2 16.1-0.6 0.4-1.2 1.2-1.8 1.6-15 10.6-228.2 167.5-117.8 402.7 2.5 5.3 7.8 8.7 13.6 8.7 8.4 0 14.6-6.7 15-14.3v-0.8c0-2.1-0.5-4.3-1.4-6.4-7.9-17-14.2-33.8-18.9-50.5-1.6-5.6-2.9-11.1-4.1-16.7-0.6-2.8-1.1-5.5-1.6-8.3-0.5-2.8-1-5.5-1.4-8.3-0.4-2.8-0.8-5.5-1.1-8.3-0.2-1.4-0.3-2.8-0.4-4.1-0.3-2.8-0.5-5.5-0.7-8.3-0.3-4.1-0.4-8.2-0.5-12.4v-4.1-4.1c0-2.7 0.1-5.5 0.3-8.2 2.1-42.1 14.9-83.3 38.1-122.9 0.6-1.1 1.2-2.1 1.9-3.1 7.8-12.9 16.6-25.7 26.6-38.2 32.8-41.2 66.2-65.5 69.9-68.2 1.1-0.8 2-1.5 2.7-2l0.2-0.2c0.5-0.4 10.3-7.7 48.4-15.9 4.8 3.5 9.7 6.8 14.7 10 38.2 24.4 78.6 38.3 115 41.6 1.8 0.9 3.6 1.6 5.5 2.2 55 16.3 122.5 2.5 176.7-41.7 6.2-5.1 12.1-10.4 17.6-15.9l0.1-0.1h0.1c20.9 5.4 34.5 11.8 41.5 18.1 1.9 1.7 3.6 3.1 5.4 4.3 18.5 13.2 35.1 27.3 49.8 42.4 41.9 29.7 64.3 99.9 64.3 99.9 10.5 27.9 16.2 57.2 17.3 87.6 0 0.7 0.1 1.4 0.1 2.1 0 1.1 0.1 2.1 0.1 3.2C843.9 569 820.8 629 820.8 629c0.2 21.2-38.7 112.2-120.4 184-0.4 0.4-0.8 0.7-1.3 1.1-0.4 0.3-0.8 0.7-1.2 1-49.5 50.8-126.5 76.6-178.5 89.1-13 3.2-25.5 5.8-37.4 7.7-11 1.9-17.7 2.7-18.1 2.8 0.8-0.2 1.5-0.5 2.2-0.7-10.8 1.2-21.1 1.8-30.9 1.8-26.9 0-46.7-4.7-61.1-11.2-26.3-11.9-35-30-37.5-37.3-2.5-7.2-6.2-13.8-10.9-19.6-2.3-2.9-4.9-5.6-7.8-8-2-1.7-3.9-3.4-5.9-5.2-17.1-15.1-32.9-30.2-47.4-45.3-4.8-5-9.4-9.9-14-14.9-2-2.2-4.5-3.7-7.2-4.4-2.8-0.8-5.9-0.7-8.8 0.3-10.2 3.5-13.4 16.3-6.1 24.3 20.1 22.1 43.2 44.7 69.7 67.7 4.6 4 8 9.1 10 14.9 9.5 27.6 60.5 114 276.2 38.7C839.8 827 995.9 460.9 722 265.8zM441.9 207c-3.1 10.1-5.3 20.4-6.6 30.6-1.3 10.1-1.6 20.1-0.9 30-0.4 7.3-0.4 14.5 0.1 21.6l-1.2-0.3h-0.1c-20.5-5-41.6-13.4-61.8-24.8-4.3-2.4-8.5-5-12.7-7.6-8.2-5.2-16-10.9-23.4-16.8-15.7-12.6-29.4-26.6-40.6-41.4-9.8-13.1-17.4-26.5-22.3-39.5-2.1-5.5-3.8-11-4.9-16.3 8-1.8 16.8-2.7 26.2-2.7 36.1 0 78.3 13.7 115.7 37.7 12.1 7.8 23.5 16.4 33.8 25.6-0.5 1.2-0.9 2.6-1.3 3.9z m205.3 28c-7.8 9-16.5 18-26.2 25.9v0.1c-27.1 22-58.9 35.5-89.9 39.8-7 0.9-14 1.4-20.9 1.4-13.4 0-26.4-1.8-38.4-5.4-1.3-0.4-2.8-1.5-4.1-2.8-1.7-1.8-3.1-4.2-3.2-6.1-0.4-4.6-0.5-9.2-0.4-13.8 1.2 0.1 2.4 0.1 3.6 0.2-1.7-1.8-3.1-4.2-3.2-6.1 0-0.2 0-0.4-0.1-0.7 0.3-4 0.8-8.1 1.4-12.1 1.2-7.5 3.1-15 5.5-22.4 0.9-2.7 1.8-5.3 2.8-8 3-7.7 6.6-15.2 10.7-22.6 11.2-19.7 26.5-38 45.3-53.3 33-26.8 72.4-41.6 111-41.6 13.4 0 26.3 1.8 38.3 5.4 3.1 0.9 7 5.8 7.3 9 0 0.2 0 0.3 0.1 0.5 0 0.2 0.1 0.4 0.1 0.6 3.1 38.3-11.9 79.3-39.7 112z" fill="" p-id="1436"></path><path d="M468.1 913.6l-1.8 0.6c-0.8 0.2-1.5 0.5-2.2 0.7 0.4-0.1 7-0.9 18.1-2.8 9.6-1.7 22.4-4.1 37.4-7.7 52-12.5 129-38.3 178.5-89.1 0.4-0.3 0.8-0.7 1.2-1 0.4-0.4 0.8-0.7 1.3-1.1 81.7-71.9 120.6-162.8 120.4-184 0 0 23.1-60.1 15.4-103.6 0-1.1 0-2.1-0.1-3.2 0-0.7-0.1-1.4-0.1-2.1-1.8-42-17.3-87.5-17.3-87.6s-22.4-70.2-64.3-99.9c-0.2-0.1 7.4 489.3-286.5 580.8z" fill="#F7ADAD" p-id="1437"></path></svg>